<svg width="21" height="21" viewBox="0 0 21 21" fill="none" xmlns="http://www.w3.org/2000/svg">
<g clip-path="url(#clip0_512_1450)">
<path d="M1.16797 17.9997H4.5013V7.99967H1.16797V17.9997ZM19.5013 8.83301C19.5013 7.91634 18.7513 7.16634 17.8346 7.16634H12.5763L13.368 3.35801L13.393 3.09134C13.393 2.74967 13.2513 2.43301 13.0263 2.20801L12.143 1.33301L6.65964 6.82467C6.3513 7.12467 6.16797 7.54134 6.16797 7.99967V16.333C6.16797 17.2497 6.91797 17.9997 7.83464 17.9997H15.3346C16.0263 17.9997 16.618 17.583 16.868 16.983L19.3846 11.108C19.4596 10.9163 19.5013 10.7163 19.5013 10.4997V8.83301Z" fill="#8084A2"/>
</g>
<defs>
<clipPath id="clip0_512_1450">
<rect width="20" height="20" fill="white" transform="translate(0.333984 0.5)"/>
</clipPath>
</defs>
</svg>
