<svg width="21" height="21" viewBox="0 0 21 21" fill="none" xmlns="http://www.w3.org/2000/svg">
<g clip-path="url(#clip0_508_1269)">
<path d="M10.491 2.16699C5.89102 2.16699 2.16602 5.90033 2.16602 10.5003C2.16602 15.1003 5.89102 18.8337 10.491 18.8337C15.0993 18.8337 18.8327 15.1003 18.8327 10.5003C18.8327 5.90033 15.0993 2.16699 10.491 2.16699ZM16.266 7.16699H13.8077C13.541 6.12533 13.1577 5.12533 12.6577 4.20033C14.191 4.72533 15.466 5.79199 16.266 7.16699ZM10.4993 3.86699C11.191 4.86699 11.7327 5.97533 12.091 7.16699H8.90768C9.26602 5.97533 9.80768 4.86699 10.4993 3.86699ZM4.04935 12.167C3.91602 11.6337 3.83268 11.0753 3.83268 10.5003C3.83268 9.92533 3.91602 9.36699 4.04935 8.83366H6.86602C6.79935 9.38366 6.74935 9.93366 6.74935 10.5003C6.74935 11.067 6.79935 11.617 6.86602 12.167H4.04935ZM4.73268 13.8337H7.19102C7.45768 14.8753 7.84102 15.8753 8.34102 16.8003C6.80768 16.2753 5.53268 15.217 4.73268 13.8337ZM7.19102 7.16699H4.73268C5.53268 5.78366 6.80768 4.72533 8.34102 4.20033C7.84102 5.12533 7.45768 6.12533 7.19102 7.16699ZM10.4993 17.1337C9.80768 16.1337 9.26602 15.0253 8.90768 13.8337H12.091C11.7327 15.0253 11.191 16.1337 10.4993 17.1337ZM12.4493 12.167H8.54935C8.47435 11.617 8.41602 11.067 8.41602 10.5003C8.41602 9.93366 8.47435 9.37533 8.54935 8.83366H12.4493C12.5243 9.37533 12.5827 9.93366 12.5827 10.5003C12.5827 11.067 12.5243 11.617 12.4493 12.167ZM12.6577 16.8003C13.1577 15.8753 13.541 14.8753 13.8077 13.8337H16.266C15.466 15.2087 14.191 16.2753 12.6577 16.8003ZM14.1327 12.167C14.1993 11.617 14.2493 11.067 14.2493 10.5003C14.2493 9.93366 14.1993 9.38366 14.1327 8.83366H16.9493C17.0827 9.36699 17.166 9.92533 17.166 10.5003C17.166 11.0753 17.0827 11.6337 16.9493 12.167H14.1327Z" fill="#8084A2"/>
</g>
<defs>
<clipPath id="clip0_508_1269">
<rect width="20" height="20" fill="white" transform="translate(0.5 0.5)"/>
</clipPath>
</defs>
</svg>
