<svg width="24" height="24" viewBox="0 0 24 24" fill="none" xmlns="http://www.w3.org/2000/svg">
<path d="M12 2C6.477 2 2 6.477 2 12C2 17.014 5.6895 21.1655 10.502 21.8885C10.9905 21.962 11.491 20.5 12 20.5C12.4595 20.5 12.912 21.969 13.3555 21.909C18.2375 21.2475 22 17.0635 22 12C22 6.477 17.523 2 12 2Z" fill="url(#paint0_linear_510_1642)"/>
<path opacity="0.05" d="M13.8528 10.5849C13.8528 9.87295 14.0053 9.02445 14.7313 9.02445H16.8728L16.8723 6.21595L16.8473 5.78995L16.4243 5.73295C16.1203 5.69195 15.4878 5.60645 14.3213 5.60645C11.5368 5.60645 10.0033 7.26395 10.0033 10.2734V11.5224H7.5293V15.1514H10.0033V21.8004C10.6483 21.931 11.3158 22.0005 11.9993 22.0005C12.6333 22.0005 13.2513 21.9349 13.8528 21.8219V15.1509H16.3693L16.9303 11.5219H13.8528V10.5849Z" fill="#0E0E12"/>
<path opacity="0.05" d="M13.6028 10.5849C13.6028 9.90845 13.7493 8.77445 14.7313 8.77445H16.6228V6.23045L16.6098 6.01045L16.3933 5.98095C16.0948 5.94045 15.4743 5.85645 14.3218 5.85645C11.6603 5.85645 10.2538 7.38395 10.2538 10.2734V11.7724H7.7793V14.9014H10.2533V21.8384C10.8213 21.9384 11.4023 22.0004 11.9993 22.0004C12.5463 22.0004 13.0793 21.9444 13.6028 21.8599V14.9009H16.1548L16.6383 11.7719H13.6023V10.5849H13.6028Z" fill="#0E0E12"/>
<path d="M13.3528 14.6509H15.9408L16.3473 12.0219H13.3528V10.5849C13.3528 9.49294 13.7098 8.52444 14.7313 8.52444H16.3728V6.23045C16.0843 6.19145 15.4743 6.10645 14.3218 6.10645C11.9148 6.10645 10.5038 7.37744 10.5038 10.2734V12.0224H8.0293V14.6514H10.5033V21.8889C10.9933 21.9619 11.4898 22.0004 11.9993 22.0004C12.4598 22.0004 12.9093 21.9694 13.3528 21.9094V14.6509Z" fill="white"/>
<defs>
<linearGradient id="paint0_linear_510_1642" x1="4.9965" y1="4.9965" x2="20.3075" y2="20.3075" gradientUnits="userSpaceOnUse">
<stop stop-color="#2AA4F4"/>
<stop offset="1" stop-color="#007AD9"/>
</linearGradient>
</defs>
</svg>
