<svg width="151" height="48" viewBox="0 0 151 48" fill="none" xmlns="http://www.w3.org/2000/svg">
<g opacity="0.54">
<path d="M87.8555 30.7408V12.9297H94.2895C95.6848 12.9297 96.8863 13.3964 97.8941 14.3102C98.9018 15.2241 99.4251 16.3908 99.4251 17.7908C99.4251 18.6464 99.2119 19.3852 98.7662 20.0269C98.3204 20.6686 97.739 21.1547 97.022 21.5047V21.6019C97.8941 21.8936 98.6111 22.4186 99.1731 23.138C99.7351 23.8769 100.026 24.713 100.026 25.6852C100.026 27.1436 99.4832 28.3491 98.4173 29.3214C97.3515 30.2741 96.0918 30.7602 94.6383 30.7602H87.8555V30.7408ZM90.1423 20.5519H94.2895C95.1422 20.5519 95.8398 20.2602 96.3631 19.6964C96.8863 19.1325 97.1383 18.4908 97.1383 17.8102C97.1383 17.1297 96.8863 16.5075 96.3825 15.9436C95.8786 15.3797 95.2197 15.088 94.3864 15.088H90.1423V20.5519ZM90.1423 28.5436H94.7352C95.6073 28.5436 96.3243 28.2325 96.867 27.6297C97.4096 27.0075 97.6809 26.3464 97.6809 25.6075C97.6809 24.8686 97.3902 24.2075 96.8282 23.6047C96.2662 23.0019 95.5298 22.6908 94.6189 22.6908H90.1423V28.5436Z" fill="#0E0E12"/>
<path d="M103.146 20.0074C104.329 18.7629 105.821 18.1602 107.642 18.1602C109.464 18.1602 110.956 18.7824 112.138 20.0074C113.321 21.2518 113.902 22.7879 113.902 24.6546C113.902 26.5213 113.321 28.0574 112.138 29.3018C110.956 30.5463 109.464 31.149 107.642 31.149C105.821 31.149 104.329 30.5268 103.146 29.3018C101.964 28.0574 101.383 26.5213 101.383 24.6546C101.383 22.7879 101.964 21.2324 103.146 20.0074ZM104.832 27.8435C105.627 28.6407 106.557 29.049 107.623 29.049C108.689 29.049 109.619 28.6407 110.414 27.8435C111.208 27.0463 111.596 25.9768 111.596 24.6546C111.596 23.3324 111.208 22.2629 110.414 21.4657C109.619 20.6685 108.689 20.2602 107.623 20.2602C106.557 20.2602 105.627 20.6685 104.832 21.4657C104.038 22.2629 103.65 23.3324 103.65 24.6546C103.67 25.9768 104.057 27.0463 104.832 27.8435Z" fill="#0E0E12"/>
<path d="M116.906 20.0074C118.088 18.7629 119.58 18.1602 121.402 18.1602C123.224 18.1602 124.716 18.7824 125.898 20.0074C127.08 21.2518 127.662 22.7879 127.662 24.6546C127.662 26.5213 127.08 28.0574 125.898 29.3018C124.716 30.5463 123.224 31.149 121.402 31.149C119.58 31.149 118.088 30.5268 116.906 29.3018C115.724 28.0574 115.143 26.5213 115.143 24.6546C115.143 22.7879 115.724 21.2324 116.906 20.0074ZM118.612 27.8435C119.406 28.6407 120.336 29.049 121.402 29.049C122.468 29.049 123.398 28.6407 124.193 27.8435C124.987 27.0463 125.375 25.9768 125.375 24.6546C125.375 23.3324 124.987 22.2629 124.193 21.4657C123.398 20.6685 122.468 20.2602 121.402 20.2602C120.336 20.2602 119.406 20.6685 118.612 21.4657C117.817 22.2629 117.429 23.3324 117.429 24.6546C117.429 25.9768 117.817 27.0463 118.612 27.8435Z" fill="#0E0E12"/>
<path d="M131.769 12.9297V23.8964L137.021 18.5491H139.947V18.6464L135.219 23.3908L140.18 30.6241V30.7214H137.428L133.61 24.9658L131.769 26.813V30.7408H129.482V12.9297H131.769Z" fill="#0E0E12"/>
<path d="M145.607 31.1295C144.25 31.1295 143.126 30.799 142.254 30.1378C141.363 29.4767 140.723 28.6406 140.316 27.649L142.351 26.7934C142.991 28.3295 144.095 29.0878 145.646 29.0878C146.363 29.0878 146.944 28.9323 147.39 28.6212C147.836 28.3101 148.068 27.8823 148.068 27.3767C148.068 26.5795 147.506 26.0351 146.402 25.7628L143.94 25.1601C143.165 24.9656 142.429 24.5767 141.731 24.0323C141.033 23.4684 140.685 22.7295 140.685 21.7767C140.685 20.7073 141.169 19.8323 142.119 19.1517C143.068 18.4712 144.192 18.1406 145.51 18.1406C146.576 18.1406 147.545 18.3934 148.378 18.8795C149.231 19.3656 149.832 20.0656 150.181 20.9795L148.204 21.7962C147.758 20.7267 146.828 20.1823 145.433 20.1823C144.754 20.1823 144.192 20.3184 143.727 20.6101C143.262 20.9017 143.03 21.2712 143.03 21.7573C143.03 22.4573 143.572 22.924 144.638 23.1767L147.041 23.7406C148.185 24.0128 149.018 24.4601 149.58 25.1017C150.122 25.7434 150.394 26.4823 150.394 27.299C150.394 28.3878 149.948 29.3017 149.057 30.0406C148.165 30.7795 147.002 31.1295 145.607 31.1295Z" fill="#0E0E12"/>
</g>
<path d="M1.13086 20.9408C1.13086 15.3213 5.84009 10.7324 11.4602 10.7324C14.5609 10.7324 16.7702 11.9574 18.4368 13.5519L16.4795 15.5158C15.2973 14.388 13.6694 13.5324 11.4602 13.5324C7.37108 13.5324 4.17345 16.838 4.17345 20.9408C4.17345 25.0435 7.37108 28.3491 11.4602 28.3491C14.1152 28.3491 15.6268 27.2796 16.5957 26.3074C17.3903 25.5102 17.9136 24.363 18.1074 22.8074H11.4602V20.0269H20.8205C20.9174 20.5324 20.9755 21.1158 20.9755 21.7769C20.9755 23.8769 20.4135 26.463 18.5725 28.2908C16.7895 30.1574 14.5028 31.1491 11.4795 31.1491C5.84009 31.1296 1.13086 26.5602 1.13086 20.9408Z" fill="#4285F4"/>
<path d="M28.515 18.0049C24.891 18.0049 21.9453 20.766 21.9453 24.5771C21.9453 28.3688 24.891 31.1493 28.515 31.1493C32.139 31.1493 35.0847 28.3688 35.0847 24.5771C35.0847 20.766 32.139 18.0049 28.515 18.0049ZM28.515 28.5438C26.5383 28.5438 24.8135 26.9104 24.8135 24.5577C24.8135 22.1854 26.5189 20.5715 28.515 20.5715C30.4917 20.5715 32.2165 22.1854 32.2165 24.5577C32.2165 26.9104 30.4917 28.5438 28.515 28.5438Z" fill="#EA4335"/>
<path d="M42.8568 18.0049C39.2328 18.0049 36.2871 20.766 36.2871 24.5771C36.2871 28.3688 39.2328 31.1493 42.8568 31.1493C46.4808 31.1493 49.4265 28.3688 49.4265 24.5771C49.4265 20.766 46.4808 18.0049 42.8568 18.0049ZM42.8568 28.5438C40.8801 28.5438 39.1553 26.9104 39.1553 24.5577C39.1553 22.1854 40.8607 20.5715 42.8568 20.5715C44.8529 20.5715 46.5583 22.1854 46.5583 24.5577C46.5583 26.9104 44.8335 28.5438 42.8568 28.5438Z" fill="#FBBC05"/>
<path d="M60.4524 18.3937V19.4631H60.3555C59.716 18.6854 58.4757 17.9854 56.9059 17.9854C53.6308 17.9854 50.627 20.8631 50.627 24.577C50.627 28.252 53.6308 31.1298 56.9059 31.1298C58.4757 31.1298 59.716 30.4298 60.3555 29.6326H60.4524V30.5854C60.4524 33.0937 59.1152 34.4354 56.9641 34.4354C55.2005 34.4354 54.1153 33.1715 53.6695 32.102L51.1696 33.152C51.8866 34.902 53.8052 37.0409 56.9834 37.0409C60.3555 37.0409 63.2043 35.0576 63.2043 30.1965V18.3937H60.4524ZM57.1579 28.5437C55.1812 28.5437 53.5145 26.8715 53.5145 24.577C53.5145 22.2631 55.1812 20.5715 57.1579 20.5715C59.1152 20.5715 60.6462 22.2631 60.6462 24.577C60.6656 26.8909 59.1152 28.5437 57.1579 28.5437Z" fill="#4285F4"/>
<path d="M65.1816 11.4326H68.0498V30.741H65.1816V11.4326Z" fill="#34A853"/>
<path d="M75.9375 28.5438C74.4646 28.5438 73.4375 27.8632 72.7592 26.5604L81.5188 22.9243L81.2281 22.1854C80.6855 20.7077 79.0188 18.0049 75.6274 18.0049C72.2553 18.0049 69.4453 20.6688 69.4453 24.5771C69.4453 28.2521 72.2166 31.1493 75.9375 31.1493C78.9413 31.1493 80.6661 29.3021 81.4025 28.2327L79.1738 26.7354C78.418 27.8243 77.4103 28.5438 75.9375 28.5438ZM75.7243 20.5327C76.8677 20.5327 77.8367 21.0965 78.1467 21.9327L72.2941 24.3632C72.2166 21.8354 74.2514 20.5327 75.7243 20.5327Z" fill="#EA4335"/>
</svg>
