<svg width="24" height="24" viewBox="0 0 24 24" fill="none" xmlns="http://www.w3.org/2000/svg">
<path d="M12 2C6.477 2 2 6.477 2 12C2 17.523 6.477 22 12 22C17.523 22 22 17.523 22 12C22 6.477 17.523 2 12 2Z" fill="url(#paint0_linear_510_1647)"/>
<path opacity="0.05" d="M10.0005 17.4998C8.38045 17.4998 6.82495 17.1028 5.73295 16.4108L5.56445 16.3043L5.86045 15.4688L6.05845 15.4918C6.13295 15.5008 6.19145 15.5023 6.25095 15.5023L6.49795 15.4998C6.99645 15.4998 7.72395 15.4198 8.42095 15.2113C7.72295 14.9733 6.83795 14.5108 6.56095 13.6538L6.34895 12.9998H6.86245C6.31295 12.4983 6.00045 11.8008 6.00045 11.0283V10.2183L6.30495 10.3588C6.10745 9.97634 6.00295 9.59034 6.00295 9.22784C6.00295 8.70334 6.14195 8.19034 6.40595 7.74484L6.77045 7.13084L7.22345 7.68184C8.22195 8.89734 9.84545 10.2298 11.5005 10.4633V9.99984C11.5005 8.31784 12.7345 6.99984 14.309 6.99984C15.0815 6.99984 15.7505 7.22084 16.253 7.64034C16.7725 7.50984 17.407 7.26884 17.7475 7.06834L18.8795 6.40234L18.476 7.65234C18.457 7.71234 18.433 7.77234 18.404 7.83334L19.3735 7.40384L18.2945 9.02034C18.07 9.36184 17.857 9.68634 17.497 9.98984C17.4995 10.1193 17.5005 10.2553 17.5005 10.3148C17.5005 13.7978 14.872 17.4998 10.0005 17.4998Z" fill="#0E0E12"/>
<path opacity="0.07" d="M9.99923 17.2497C8.42573 17.2497 6.91873 16.8667 5.86523 16.1992L6.02773 15.7397C6.11373 15.7497 6.18073 15.7522 6.24873 15.7522L6.49923 15.7497C7.30573 15.7497 8.39873 15.5652 9.23673 15.1682C8.22373 14.9797 7.08373 14.4607 6.79773 13.5762L6.69173 13.2497H7.03573C7.27373 13.2497 7.46323 13.2372 7.61823 13.2172C6.76673 12.7897 6.24973 11.9902 6.24973 11.0282V10.6092L6.61823 10.7797C6.72573 10.8377 6.86873 10.9042 7.02473 10.9687C6.58473 10.4637 6.25223 9.84117 6.25223 9.22817C6.25223 8.74867 6.37973 8.27967 6.62023 7.87267L6.80223 7.56567L7.02873 7.84117C8.13323 9.18567 9.93073 10.6182 11.7487 10.7412V9.99967C11.7487 8.45767 12.8727 7.24967 14.3072 7.24967C15.0717 7.24967 15.7167 7.47867 16.1827 7.91367C16.7447 7.78767 17.4752 7.51767 17.8722 7.28417L18.4382 6.95117L18.2367 7.57617C18.1412 7.87317 17.9097 8.17217 17.6382 8.43917C17.7252 8.40517 17.8122 8.36917 17.8982 8.33117L18.6867 7.98167L18.0857 8.88217C17.8442 9.25017 17.6327 9.57217 17.2442 9.87267C17.2472 10.0242 17.2492 10.2362 17.2492 10.3142C17.2492 13.6767 14.7082 17.2497 9.99923 17.2497Z" fill="#0E0E12"/>
<path d="M18 7.5C17.5245 7.7795 16.6645 8.078 16.1035 8.186C15.6555 7.711 15.0165 7.5 14.3085 7.5C12.9485 7.5 12 8.6525 12 10V11C10 11 8.05 9.4765 6.8365 8C6.623 8.3605 6.503 8.7825 6.503 9.2285C6.503 10.138 7.3385 11.061 8 11.5C7.5965 11.4875 6.8325 11.1795 6.5 11V11.0285C6.5 12.212 7.3305 13.0155 8.456 13.2395C8.2505 13.296 8 13.5 7.036 13.5C7.349 14.4675 8.9225 14.979 10 15C9.157 15.6535 7.654 16 6.5 16C6.3005 16 6.1925 16.011 6 15.9885C7.089 16.6785 8.61 17 10 17C14.5285 17 17 13.541 17 10.315C17 10.209 16.9965 9.854 16.991 9.75C17.475 9.409 17.671 9.052 18 8.56C17.559 8.7555 17.0005 8.939 16.5 9C17.009 8.698 17.8165 8.069 18 7.5Z" fill="white"/>
<defs>
<linearGradient id="paint0_linear_510_1647" x1="4.2275" y1="3.9415" x2="20.44" y2="20.75" gradientUnits="userSpaceOnUse">
<stop stop-color="#2AA4F4"/>
<stop offset="1" stop-color="#007AD9"/>
</linearGradient>
</defs>
</svg>
