<svg width="118" height="48" viewBox="0 0 118 48" fill="none" xmlns="http://www.w3.org/2000/svg">
<g clip-path="url(#clip0_508_1159)">
<path d="M100.27 18.472L117.598 7.66797V10.5979L100.27 21.4477L82.9199 10.5979V7.66797L100.27 18.472Z" fill="#F8991C"/>
<path d="M100.271 4.9209C96.3571 4.9209 92.9236 6.88942 90.9551 9.93376C91.1153 9.77354 91.2069 9.68198 91.3671 9.56753C96.2426 5.51603 103.27 6.43162 107.092 11.5361L109.633 9.91088C107.619 6.95809 104.163 4.9209 100.271 4.9209Z" fill="#F8991C"/>
<path d="M100.27 9.93457C98.1412 9.93457 96.2642 11.0104 95.1426 12.5669C96.0582 11.9031 97.1111 11.5598 98.2327 11.5598C100.11 11.5598 101.781 12.5211 102.902 14.1463L105.329 12.6356C104.276 10.9646 102.399 9.93457 100.27 9.93457Z" fill="#F8991C"/>
<path d="M88.5514 5.53935C95.693 -0.0915567 105.787 1.44206 111.167 8.92704L111.212 8.97282L113.845 7.34763C110.961 2.92989 105.948 0 100.271 0C94.6401 0 89.6272 2.88411 86.6973 7.34763C87.2237 6.7525 87.8875 6.04292 88.5514 5.53935Z" fill="#F8991C"/>
<path d="M4.66059 43.3991C4.50036 43.6509 4.29435 43.8569 3.99678 44.0171C3.69921 44.1774 3.37875 44.2689 2.98963 44.2689C2.73784 44.2689 2.53183 44.2231 2.28004 44.1774C2.07403 44.1316 1.86803 44.0172 1.77647 43.8798C1.61624 43.7196 1.52468 43.628 1.41023 43.422C1.31867 43.216 1.25 43.01 1.25 42.804C1.25 42.392 1.34156 42.0944 1.54757 41.8884C1.75358 41.6824 2.00537 41.5221 2.34871 41.4306C2.64628 41.339 3.0583 41.2704 3.42454 41.2246C3.83655 41.1788 4.22568 41.1788 4.59192 41.1788V40.8813C4.59192 40.515 4.50036 40.2174 4.29435 40.0114C4.08834 39.8054 3.79077 39.7138 3.42454 39.7138C3.0583 39.7138 2.71495 39.7596 2.55472 39.9657C2.39449 40.1717 2.25715 40.3319 2.18848 40.6294C2.09692 40.6294 1.9367 40.5837 1.89092 40.5837C1.84514 40.5837 1.63913 40.5837 1.59335 40.5837C1.63913 40.1259 1.84514 39.7825 2.21137 39.5079C2.50894 39.2561 3.01252 39.1416 3.58476 39.1416C4.20279 39.1416 4.66059 39.3018 4.95815 39.5994C5.25572 39.897 5.41595 40.3548 5.41595 40.9728V44.1087H4.95815L4.66059 43.3991ZM4.61481 41.6824C4.20279 41.6824 3.81366 41.7282 3.44742 41.7282C3.14985 41.7739 2.8294 41.7739 2.64628 41.8884C2.44027 41.9799 2.23426 42.0486 2.1427 42.186C2.05114 42.3462 1.98247 42.4835 1.98247 42.7353C1.98247 43.0329 2.07404 43.2389 2.23426 43.3991C2.39449 43.5594 2.64628 43.6509 2.98963 43.6509C3.24141 43.6509 3.4932 43.6051 3.69921 43.4907C3.90522 43.4449 4.06545 43.2847 4.20279 43.1931C4.36302 43.0329 4.45458 42.8955 4.50036 42.6895C4.54614 42.4835 4.59192 42.2775 4.59192 42.0715L4.61481 41.6824Z" fill="#2D2D2D"/>
<path d="M6.94922 39.3018H7.36124L7.61303 40.103C7.81903 39.8054 8.02504 39.5994 8.32261 39.3934C8.62018 39.2332 8.94064 39.1416 9.2382 39.1416C9.78756 39.1416 10.1996 39.3018 10.4971 39.5994C10.7489 39.897 10.9092 40.3548 10.9092 40.927V44.1316H10.2454V41.0415C10.2454 40.6295 10.1538 40.2861 9.99357 40.0801C9.83334 39.8741 9.53577 39.7825 9.19242 39.7825C8.94064 39.7825 8.68885 39.8283 8.48284 39.9427C8.27683 40.0343 8.1166 40.1945 8.02504 40.3548C7.86481 40.515 7.81903 40.7668 7.77325 40.9728C7.72747 41.2246 7.72748 41.4764 7.72748 41.7282V44.1087H7.01789L6.94922 39.3018Z" fill="#2D2D2D"/>
<path d="M53.1174 42.529C53.0717 43.0326 52.8656 43.4904 52.4994 43.7879C52.1332 44.0855 51.6983 44.2915 51.126 44.2915C50.7598 44.2915 50.4164 44.2457 50.1646 44.0855C49.9129 43.9253 49.6611 43.7879 49.4551 43.5819C49.2491 43.3301 49.1575 43.0783 49.043 42.7808C48.9515 42.4832 48.8828 42.117 48.8828 41.7736C48.8828 41.4074 48.9286 41.064 49.043 40.7665C49.1346 40.4689 49.2948 40.1485 49.4551 39.9653C49.6153 39.7822 49.8671 39.5533 50.1646 39.416C50.4164 39.2557 50.7827 39.21 51.126 39.21C51.3778 39.21 51.6296 39.2557 51.8814 39.3702C52.1332 39.4617 52.2934 39.5762 52.4994 39.7364C52.6596 39.8967 52.797 40.034 52.9114 40.24C53.0259 40.446 53.0717 40.652 53.0717 40.9496H52.3621C52.3163 40.652 52.2018 40.3316 51.9958 40.1484C51.7898 39.9653 51.4923 39.8509 51.126 39.8509C50.8285 39.8509 50.6224 39.8967 50.4164 40.0111C50.2104 40.1027 50.1189 40.2629 49.9586 40.4231C49.8671 40.5834 49.7526 40.8351 49.7068 41.0411C49.6611 41.2472 49.6611 41.4989 49.6611 41.7507C49.6611 42.0025 49.7068 42.2543 49.7068 42.4603C49.7068 42.6663 49.8671 42.8723 49.9586 43.0783C50.0502 43.2844 50.2104 43.3759 50.4164 43.4903C50.6224 43.5819 50.8285 43.6506 51.126 43.6506C51.538 43.6506 51.8356 43.559 51.9958 43.353C52.2018 43.1012 52.2934 42.8494 52.4078 42.5519H53.1174V42.529Z" fill="#2D2D2D"/>
<path d="M56.3682 44.2692C56.002 44.2692 55.6586 44.2234 55.4068 44.0631C55.155 43.9029 54.9033 43.7656 54.6972 43.5596C54.4912 43.3078 54.3997 43.056 54.2852 42.7584C54.1937 42.4609 54.125 42.0946 54.125 41.7513C54.125 41.4079 54.1708 41.0417 54.2852 40.7441C54.3768 40.4466 54.537 40.1261 54.6972 39.943C54.8575 39.6912 55.1093 39.531 55.4068 39.4394C55.6586 39.2792 56.0249 39.2334 56.3682 39.2334C56.7116 39.2334 57.0778 39.2792 57.3296 39.4394C57.5814 39.5996 57.8332 39.737 58.0392 39.943C58.1994 40.1948 58.3367 40.4466 58.4512 40.7441C58.5427 41.0417 58.6114 41.4079 58.6114 41.7513C58.6114 42.0946 58.5656 42.4609 58.4512 42.7584C58.3596 43.056 58.1994 43.3765 58.0392 43.5596C57.8332 43.8114 57.6271 43.9716 57.3296 44.0631C57.032 44.2005 56.7116 44.2692 56.3682 44.2692ZM56.3682 43.6511C56.6658 43.6511 56.8718 43.6054 57.0778 43.4909C57.2838 43.3993 57.444 43.2391 57.5356 43.0789C57.6272 42.9187 57.7416 42.6669 57.7874 42.4609C57.8332 42.2091 57.8332 42.0031 57.8332 41.7513C57.8332 41.4995 57.7874 41.2477 57.7874 41.0417C57.7416 40.7899 57.6272 40.6297 57.5356 40.4237C57.444 40.2177 57.2838 40.1261 57.0778 40.0117C56.8718 39.9201 56.6658 39.8514 56.3682 39.8514C56.0706 39.8514 55.8646 39.8972 55.6586 40.0117C55.4526 40.1032 55.3611 40.2635 55.2008 40.4237C55.0406 40.5839 54.9948 40.8357 54.949 41.0417C54.9033 41.2935 54.9033 41.4995 54.9033 41.7513C54.9033 42.0031 54.949 42.2549 54.949 42.4609C54.9948 42.7126 55.1093 42.9187 55.2008 43.0789C55.3611 43.2391 55.4526 43.3765 55.6586 43.4909C55.796 43.6054 56.0706 43.6511 56.3682 43.6511Z" fill="#2D2D2D"/>
<path d="M66.0058 44.1546V41.0187C66.0058 40.6067 65.96 40.2633 65.754 40.1031C65.5938 39.8971 65.342 39.8055 64.9987 39.8055C64.8384 39.8055 64.7011 39.8513 64.4951 39.8971C64.3349 39.9429 64.1975 40.0573 64.0831 40.1947C63.9228 40.3549 63.8313 40.4922 63.7855 40.6525C63.7397 40.8127 63.6939 41.0187 63.6939 41.2705V44.1546H62.9844V41.0187C62.9844 40.6067 62.9386 40.3091 62.7326 40.1031C62.5723 39.8971 62.3205 39.8055 61.9772 39.8055C61.817 39.8055 61.611 39.8513 61.4736 39.9658C61.3134 40.0115 61.1761 40.1718 61.0616 40.2633C60.9014 40.4235 60.8098 40.5609 60.764 40.7669C60.7183 40.9729 60.6725 41.1789 60.6725 41.4765V44.1088H59.9629V39.3477H60.3749L60.6267 40.1031C60.7869 39.8055 61.0387 39.5995 61.2905 39.4393C61.5423 39.2791 61.7941 39.1875 62.1603 39.1875C62.5723 39.1875 62.8699 39.2791 63.0759 39.4393C63.3277 39.5995 63.4879 39.8513 63.5795 40.1489C63.7397 39.8513 63.9915 39.6453 64.2433 39.4393C64.4951 39.2333 64.8613 39.1875 65.2047 39.1875C65.7082 39.1875 66.0745 39.3477 66.372 39.5995C66.6238 39.8971 66.7841 40.3091 66.7841 40.8584V44.1546H66.0058Z" fill="#2D2D2D"/>
<path d="M68.2715 39.3017H68.7293L68.9811 40.0113C69.1413 39.7595 69.3931 39.5077 69.6907 39.3475C69.9424 39.1873 70.3087 39.0957 70.6062 39.0957C70.9725 39.0957 71.27 39.1415 71.5218 39.3017C71.7736 39.4619 71.9796 39.5993 72.1856 39.8511C72.3459 40.1029 72.4832 40.3547 72.5977 40.6522C72.6434 40.9498 72.7579 41.2702 72.7579 41.6136C72.7579 41.9798 72.7121 42.3232 72.5977 42.6207C72.5061 42.9183 72.3459 43.2388 72.1856 43.4219C72.0254 43.6737 71.7736 43.8339 71.5218 43.9255C71.27 44.0857 70.9725 44.1315 70.6062 44.1315C70.3087 44.1315 69.9882 44.0857 69.7364 43.9255C69.4846 43.7652 69.2329 43.6279 69.0268 43.3074V45.8482H68.3173V39.1644H68.2715V39.3017ZM68.9353 41.6365C68.9353 41.934 68.9811 42.2545 68.9811 42.4376C69.0269 42.6894 69.1413 42.8954 69.2329 43.1014C69.3931 43.2617 69.4846 43.399 69.6907 43.5135C69.8967 43.605 70.1027 43.6737 70.4002 43.6737C70.9038 43.6737 71.2701 43.5135 71.4761 43.1701C71.7279 42.8039 71.8423 42.3689 71.8423 41.7509C71.8423 41.1329 71.6821 40.6751 71.4303 40.3318C71.1785 40.0342 70.8123 39.8282 70.3545 39.8282C70.1027 39.8282 69.8967 39.874 69.6907 39.9884C69.4846 40.08 69.3244 40.2402 69.1871 40.4004C69.0268 40.5606 68.9353 40.7667 68.8895 41.0185C68.9811 41.11 68.9353 41.3618 68.9353 41.6365Z" fill="#2D2D2D"/>
<path d="M76.9457 43.3991C76.7855 43.6509 76.5795 43.8569 76.2819 44.0171C75.9844 44.1774 75.6639 44.2689 75.2748 44.2689C75.023 44.2689 74.817 44.2231 74.5652 44.1774C74.3592 44.1316 74.1532 44.0172 74.0616 43.8798C73.9014 43.7196 73.8098 43.628 73.6954 43.422C73.6038 43.216 73.5352 43.01 73.5352 42.804C73.5352 42.392 73.6267 42.0944 73.8327 41.8884C74.0387 41.6824 74.2905 41.5221 74.6339 41.4306C74.9314 41.339 75.3435 41.2704 75.7097 41.2246C76.1217 41.1788 76.5108 41.1788 76.8771 41.1788V40.8813C76.8771 40.515 76.7855 40.2174 76.5795 40.0114C76.3735 39.8054 76.0759 39.7138 75.7097 39.7138C75.3435 39.7138 75.0001 39.7596 74.8399 39.9657C74.6339 40.1259 74.5423 40.3319 74.4736 40.6294C74.3821 40.6294 74.2218 40.5837 74.1761 40.5837C74.0845 40.5837 73.9243 40.5837 73.8785 40.5837C73.9243 40.1259 74.1303 39.7825 74.4965 39.5079C74.7941 39.2561 75.2977 39.1416 75.8699 39.1416C76.4879 39.1416 76.9457 39.3018 77.2433 39.5994C77.5409 39.897 77.7011 40.3548 77.7011 40.9728V44.1087H77.1517L76.9457 43.3991ZM76.9457 41.6824C76.5337 41.6824 76.1446 41.7282 75.7784 41.7282C75.4808 41.7739 75.1603 41.7739 74.9772 41.8884C74.7712 41.9799 74.5652 42.0486 74.4736 42.186C74.3821 42.3462 74.3134 42.4835 74.3134 42.7353C74.3134 43.0329 74.405 43.2389 74.5652 43.3991C74.7254 43.5594 74.9772 43.6509 75.3206 43.6509C75.5723 43.6509 75.8241 43.6051 76.0301 43.4907C76.2362 43.4449 76.3964 43.2847 76.5337 43.1931C76.694 43.0329 76.7855 42.8955 76.8313 42.6895C76.8771 42.4835 76.9229 42.2775 76.9229 42.0715L76.9457 41.6824Z" fill="#2D2D2D"/>
<path d="M79.2812 39.3018H79.6933L79.9451 40.103C80.1511 39.8054 80.3571 39.5994 80.6546 39.3934C80.9522 39.1874 81.2727 39.1416 81.5702 39.1416C82.1196 39.1416 82.5316 39.3018 82.8292 39.5994C83.081 39.897 83.2412 40.3548 83.2412 40.927V44.1316H82.5316V41.0415C82.5316 40.6295 82.44 40.2861 82.2798 40.0801C82.1196 39.8741 81.822 39.7825 81.4787 39.7825C81.2269 39.7825 80.9751 39.8283 80.7691 39.9427C80.5631 40.0343 80.4029 40.1945 80.3113 40.3548C80.2197 40.5608 80.1053 40.7668 80.0595 40.9728C80.0137 41.2246 80.0137 41.4764 80.0137 41.7282V44.1087H79.3041L79.2812 39.3018Z" fill="#2D2D2D"/>
<path d="M84.4549 45.8939C84.4549 45.8024 84.5007 45.6879 84.5007 45.5964C84.5007 45.5048 84.5465 45.3903 84.5465 45.2988C84.5923 45.3446 84.7067 45.3446 84.7983 45.3446C84.8898 45.3446 85.0043 45.3903 85.0958 45.3903C85.1874 45.3903 85.3476 45.3446 85.4621 45.2988C85.5536 45.253 85.6223 45.1386 85.7138 45.047C85.8054 44.8868 85.8741 44.7952 85.9199 44.635C85.9656 44.4747 86.0801 44.2687 86.1716 44.017C85.8741 43.2158 85.5078 42.3918 85.2103 41.6364C84.9127 40.881 84.5465 40.0112 84.2031 39.2559H85.0043C85.2561 39.9197 85.5078 40.6293 85.8054 41.2244C86.0572 41.8882 86.309 42.552 86.6066 43.1929C86.8583 42.5291 87.1101 41.8195 87.3619 41.2244C87.6137 40.5606 87.8655 39.8968 88.1173 39.2559H88.8726C88.5751 40.1257 88.2089 40.9726 87.9113 41.7967C87.6137 42.6665 87.2017 43.5134 86.9041 44.3374C86.8126 44.5892 86.6981 44.7952 86.6523 45.0012C86.5608 45.2072 86.4463 45.3675 86.3548 45.5048C86.2632 45.6421 86.103 45.7566 85.9427 45.8024C85.7825 45.8482 85.5765 45.8939 85.3247 45.8939C85.1645 45.8939 85.0272 45.8939 84.9127 45.8481C84.7067 45.8939 84.5465 45.9397 84.4549 45.8939Z" fill="#2D2D2D"/>
<path d="M33.707 46.0318C31.9216 47.2907 29.3579 48.0003 27.1147 48.0003C24.0246 48.0003 21.1862 46.8787 19.1032 45.0018C18.943 44.8415 19.0575 44.6355 19.3093 44.7499C21.5982 46.0776 24.4366 46.8329 27.3665 46.8329C29.335 46.8329 31.4638 46.4209 33.501 45.6198C33.7527 45.5282 34.0045 45.8258 33.707 46.0318Z" fill="#2D2D2D"/>
<path d="M34.4628 45.2305C34.211 44.9329 32.9521 45.0702 32.3799 45.1847C32.2196 45.2305 32.1738 45.0245 32.3341 44.9329C33.3412 44.2233 35.0122 44.4293 35.2182 44.6811C35.4242 44.9329 35.1724 46.5581 34.211 47.3135C34.0508 47.4737 33.9135 47.3592 33.9593 47.2219C34.211 46.6496 34.6688 45.528 34.4628 45.2305Z" fill="#2D2D2D"/>
<path d="M32.3791 40.0114V39.3018C32.3791 39.2103 32.4248 39.1416 32.5393 39.1416H35.6294C35.721 39.1416 35.7896 39.1874 35.7896 39.3018V39.9199C35.7896 40.0114 35.6981 40.1717 35.5379 40.3319L33.9127 42.5522C34.5307 42.5522 35.1716 42.598 35.6981 42.9184C35.8583 42.9642 35.8583 43.0787 35.8583 43.1702V43.8798C35.8583 43.9714 35.7667 44.0858 35.6065 44.04C34.6451 43.5365 33.3862 43.4907 32.3104 44.04C32.2188 44.0858 32.0586 43.9943 32.0586 43.8798V43.1702C32.0586 43.0787 32.0586 42.8727 32.2188 42.7124L34.0958 40.0801H32.5393C32.4935 40.1488 32.3791 40.103 32.3791 40.0114Z" fill="#2D2D2D"/>
<path d="M21.0259 44.2689H20.0645C19.973 44.2689 19.9043 44.2232 19.9043 44.1087V39.3934C19.9043 39.3019 19.9959 39.2332 20.1103 39.2332H20.9801C21.0717 39.2332 21.1403 39.279 21.1403 39.3934V40.0114H21.1861C21.4379 39.3934 21.8499 39.1416 22.4451 39.1416C23.0631 39.1416 23.4064 39.3934 23.704 40.0114C23.9558 39.3934 24.4594 39.1416 25.0316 39.1416C25.4436 39.1416 25.8328 39.3018 26.1532 39.6452C26.4508 40.0572 26.405 40.6066 26.405 41.1102V44.1087C26.405 44.2003 26.3134 44.2689 26.199 44.2689H25.2376C25.1461 44.2689 25.0774 44.2232 25.0774 44.1087V41.5679C25.0774 41.3619 25.1232 40.8584 25.0316 40.6981C24.9858 40.4006 24.7341 40.2861 24.4823 40.2861C24.2305 40.2861 24.0245 40.4463 23.9329 40.6981C23.8413 40.9499 23.8413 41.3161 23.8413 41.6137V44.1545C23.8413 44.246 23.7956 44.3147 23.6353 44.3147H22.674C22.5824 44.3147 22.5137 44.2689 22.5137 44.1545V41.6137C22.5137 41.1101 22.6053 40.2861 21.8957 40.2861C21.1861 40.2861 21.2319 41.0415 21.2319 41.6137V44.1545C21.2319 44.1545 21.1403 44.2689 21.0259 44.2689Z" fill="#2D2D2D"/>
<path d="M38.5819 39.0498C40.001 39.0498 40.7564 40.2172 40.7564 41.6821C40.7564 43.1013 39.8866 44.2687 38.5819 44.2687C37.2085 44.2687 36.4531 43.1013 36.4531 41.6363C36.4531 40.2172 37.2085 39.0498 38.5819 39.0498ZM38.5819 40.0569C37.8723 40.0569 37.8265 40.9726 37.8265 41.5677C37.8265 42.1628 37.8265 43.3989 38.5361 43.3989C39.2457 43.3989 39.2915 42.4375 39.2915 41.7737C39.2915 41.3617 39.2457 40.9039 39.1312 40.5147C39.0855 40.1485 38.8794 40.0569 38.5819 40.0569Z" fill="#2D2D2D"/>
<path d="M42.565 44.2689H41.6036C41.512 44.2689 41.4434 44.2232 41.4434 44.1087V39.3934C41.4434 39.3019 41.5349 39.2332 41.6494 39.2332H42.5192C42.6107 39.2332 42.6794 39.279 42.6794 39.3934V40.103H42.7252C42.977 39.4392 43.3432 39.1416 43.9841 39.1416C44.3962 39.1416 44.8539 39.3018 45.1057 39.691C45.3575 40.0801 45.3575 40.6981 45.3575 41.1559V44.1545C45.3575 44.246 45.266 44.3147 45.1515 44.3147H44.1901C44.0986 44.3147 44.0299 44.2689 44.0299 44.1545V41.6137C44.0299 41.1101 44.0757 40.3548 43.4119 40.3548C43.1601 40.3548 42.9541 40.515 42.8625 40.7668C42.7023 41.0644 42.7023 41.3848 42.7023 41.6366V44.1774C42.7252 44.1545 42.6794 44.2689 42.565 44.2689Z" fill="#2D2D2D"/>
<path d="M31.5319 43.3076C31.3716 43.0558 31.1656 42.8498 31.1656 42.4378V41.0186C31.1656 40.4006 31.2114 39.8513 30.7536 39.4392C30.3874 39.1417 29.7922 38.9814 29.3345 38.9814C28.4189 38.9814 27.4117 39.3477 27.2057 40.4006C27.2057 40.5608 27.2973 40.5608 27.3659 40.6066L28.2815 40.6982C28.3731 40.6982 28.3731 40.6524 28.4418 40.538C28.4875 40.1259 28.8538 39.9886 29.1971 39.9886C29.4031 39.9886 29.6091 40.0802 29.7007 40.2404C29.9067 40.4006 29.8609 40.6524 29.8609 40.9042V41.0644C29.3573 41.1102 28.602 41.1102 28.0755 41.362C27.4575 41.6138 27.0684 42.1174 27.0684 42.8727C27.0684 43.7883 27.6864 44.2919 28.4875 44.2919C29.1971 44.2919 29.5634 44.1317 30.0669 43.6281C30.2729 43.8799 30.3187 43.9943 30.6163 44.2461C30.7078 44.2461 30.8223 44.2461 30.8681 44.2003C31.0741 44.0401 31.4174 43.7425 31.5319 43.5365C31.5777 43.4908 31.5777 43.3992 31.5319 43.3076ZM29.9525 41.98C29.9525 42.3462 29.9525 42.6438 29.7922 42.9414C29.632 43.1932 29.3802 43.3534 29.1284 43.3534C28.7622 43.3534 28.5104 43.1016 28.5104 42.6896C28.5104 41.8884 29.22 41.774 29.9296 41.774V41.98H29.9525Z" fill="#2D2D2D"/>
<path d="M19.1494 43.3076C18.9891 43.0558 18.7831 42.8498 18.7831 42.4378V41.0186C18.7831 40.4006 18.8289 39.8513 18.3711 39.4392C18.0049 39.1417 17.4097 38.9814 16.952 38.9814C16.0364 38.9814 15.0292 39.3477 14.8232 40.4006C14.8232 40.5608 14.9148 40.5608 14.9834 40.6066L15.899 40.6982C15.9906 40.6982 15.9906 40.6524 16.0592 40.538C16.105 40.1259 16.4713 39.9886 16.8146 39.9886C17.0206 39.9886 17.1809 40.0802 17.3182 40.2404C17.4555 40.4006 17.4097 40.6524 17.4097 40.9042V41.0644C16.9062 41.1102 16.1508 41.1102 15.6243 41.362C15.0063 41.6138 14.6172 42.1174 14.6172 42.8727C14.6172 43.7883 15.2352 44.2919 16.0364 44.2919C16.7459 44.2919 17.1122 44.1317 17.6158 43.6281C17.8218 43.8799 17.8675 43.9943 18.1651 44.2461C18.2567 44.2461 18.3711 44.2461 18.4169 44.2003C18.6229 44.0401 18.9663 43.7425 19.1265 43.5365C19.218 43.4908 19.218 43.3992 19.1494 43.3076ZM17.4784 41.98C17.4784 42.3462 17.4784 42.6438 17.3182 42.9414C17.158 43.1932 16.9062 43.3534 16.6544 43.3534C16.2881 43.3534 16.0364 43.1016 16.0364 42.6896C16.0364 41.8884 16.7459 41.774 17.4555 41.774V41.98H17.4784Z" fill="#2D2D2D"/>
<path d="M16.1738 27.4224V17.0762H19.5615V27.3079C19.5615 29.8029 21.6445 30.3981 22.8119 30.3981C25.3527 30.3981 26.1996 28.8873 26.1996 28.0175V17.0762H29.5873V33.1448H27.6188L26.2911 31.3137C25.3755 32.4353 23.8648 33.4424 21.6216 33.4424C18.3941 33.4653 16.1738 31.3365 16.1738 27.4224Z" fill="#2D2D2D"/>
<path d="M54.6973 11.4223V33.1677H56.62L57.879 31.3365C58.7946 32.4581 60.3053 33.511 62.5485 33.511C65.5471 33.511 68.0649 31.6798 68.0649 27.6283V22.6612C68.0649 18.6097 65.5242 16.7785 62.3883 16.7785C60.2137 16.7785 58.7488 17.7399 57.9705 18.7013V11.3994L54.6973 11.4223ZM61.5871 30.4209C59.5041 30.4209 57.9934 29.4137 58.0392 27.2163V22.7986C58.0392 21.0818 59.4126 19.7542 61.6329 19.7542C63.2123 19.7542 64.7688 20.9216 64.7688 22.7986V27.3079C64.7688 29.2993 63.1665 30.4209 61.5871 30.4209Z" fill="#2D2D2D"/>
<path d="M42.0163 11.4219V18.7237C41.2609 17.7624 39.796 16.801 37.5986 16.801C34.4627 16.801 31.9219 18.6322 31.9219 22.6837V27.6508C31.9219 31.7023 34.4626 33.5335 37.4383 33.5335C39.6586 33.5335 41.1923 32.4576 42.1079 31.3589L43.3668 33.1901H45.2895V11.4448H42.0163V11.4219ZM35.218 27.3761V22.8668C35.218 20.9898 36.7974 19.8224 38.3539 19.8224C40.5742 19.8224 41.9476 21.0814 41.9476 22.8668V27.2845C41.9934 29.4591 40.4827 30.4891 38.3997 30.4891C36.8432 30.4205 35.218 29.2988 35.218 27.3761Z" fill="#2D2D2D"/>
<path d="M70.3535 11.4219H73.7412V33.1672H70.3535V11.4219Z" fill="#2D2D2D"/>
<path d="M51.7432 17.0986H48.3555V33.1673H51.7432V17.0986Z" fill="#2D2D2D"/>
<path d="M50.0731 15.1531C51.135 15.1531 51.9959 14.2923 51.9959 13.2304C51.9959 12.1685 51.135 11.3076 50.0731 11.3076C49.0112 11.3076 48.1504 12.1685 48.1504 13.2304C48.1504 14.2923 49.0112 15.1531 50.0731 15.1531Z" fill="#2D2D2D"/>
<path d="M83.0798 30.4205C80.7451 30.4205 79.6235 29.2074 79.6235 27.5364V26.2088H89.6492V22.6151C89.6492 18.907 87.0627 16.7324 83.057 16.7324C78.891 16.7324 76.2129 19.0672 76.2129 22.7067V27.6738C76.2129 31.3819 78.891 33.5565 83.057 33.5565C86.1471 33.5565 88.4361 32.2975 89.3517 30.1688L86.9253 28.658C86.0784 29.8254 84.8424 30.4205 83.0798 30.4205ZM79.6235 22.6609C79.6235 20.9899 80.7909 19.8226 82.9654 19.8226C85.1399 19.8226 86.3073 20.9899 86.3073 22.6609V23.668H79.6693L79.6235 22.6609Z" fill="#2D2D2D"/>
<path d="M7.45241 16.7324C4.15628 16.7324 2.02752 18.06 1.22638 20.0286L3.85871 21.6537C4.98031 19.8683 6.03324 19.7768 7.45241 19.7768C9.53539 19.7768 10.451 20.7382 10.451 22.3175V23.5765H7.58975C5.50678 23.5765 0.402344 24.2861 0.402344 28.7038C0.402344 31.8397 2.78289 33.4191 5.66701 33.4191C7.95599 33.4191 9.62695 32.3433 10.5883 31.2446L11.9159 33.0758H13.8845V22.0658C13.8387 19.0214 11.7099 16.7324 7.45241 16.7324ZM10.4281 28.04C10.3823 28.2918 10.3823 28.5894 10.0619 29.0014C9.55828 29.711 8.23067 30.4205 6.71994 30.4205C5.09476 30.4205 3.92738 29.7567 3.92738 28.452C3.92738 26.5293 7.01751 26.1173 8.98604 26.0257H10.451L10.4281 28.04Z" fill="#2D2D2D"/>
</g>
<defs>
<clipPath id="clip0_508_1159">
<rect width="117.196" height="48" fill="white" transform="translate(0.402344)"/>
</clipPath>
</defs>
</svg>
