<svg width="93" height="48" viewBox="0 0 93 48" fill="none" xmlns="http://www.w3.org/2000/svg">
<g clip-path="url(#clip0_508_1130)">
<path d="M58.539 37.874C53.1544 41.8428 45.3499 43.9603 38.6303 43.9603C29.2084 43.9603 20.7262 40.4755 14.3091 34.6796C13.805 34.2238 14.2567 33.6027 14.8617 33.9576C21.787 37.9869 30.3498 40.411 39.195 40.411C45.1603 40.411 51.7226 39.1768 57.7565 36.6156C58.668 36.2284 59.4303 37.2125 58.539 37.874Z" fill="#FF9900"/>
<path d="M60.7783 35.3135C60.0926 34.4342 56.2286 34.8981 54.4943 35.1038C53.9659 35.1683 53.8853 34.7085 54.3612 34.3778C57.4386 32.2119 62.4884 32.837 63.0773 33.563C63.6661 34.2931 62.924 39.3549 60.0321 41.7709C59.5884 42.142 59.1649 41.9444 59.3626 41.4523C60.0119 39.8309 61.468 36.1968 60.7783 35.3135Z" fill="#FF9900"/>
<path d="M54.6146 19.087V16.9816C54.6146 16.663 54.8566 16.4492 55.147 16.4492H64.5729C64.8754 16.4492 65.1174 16.667 65.1174 16.9816V18.7845C65.1134 19.087 64.8593 19.4823 64.4076 20.1075L59.5232 27.0812C61.3382 27.0368 63.254 27.307 64.8996 28.2347C65.2707 28.4444 65.3715 28.751 65.3998 29.0535V31.3001C65.3998 31.6066 65.061 31.9656 64.706 31.78C61.806 30.2594 57.9542 30.0941 54.7477 31.7962C54.421 31.9736 54.0781 31.6187 54.0781 31.3122V29.1785C54.0781 28.8357 54.0822 28.2508 54.425 27.7305L60.0838 19.6154H55.1591C54.8566 19.6154 54.6146 19.4016 54.6146 19.087Z" fill="#221F1F"/>
<path d="M20.2315 32.2234H17.3638C17.0895 32.2033 16.8717 31.9976 16.8516 31.7354V17.0177C16.8516 16.7232 17.0976 16.4893 17.4041 16.4893H20.0782C20.3566 16.5014 20.5784 16.7151 20.5986 16.9813V18.9053H20.651C21.3488 17.0459 22.6596 16.1787 24.4262 16.1787C26.2211 16.1787 27.3423 17.0459 28.149 18.9053C28.8427 17.0459 30.4198 16.1787 32.1098 16.1787C33.3117 16.1787 34.6266 16.6748 35.4292 17.788C36.3367 19.0263 36.1512 20.8251 36.1512 22.4022L36.1472 31.691C36.1472 31.9855 35.9011 32.2234 35.5946 32.2234H32.7309C32.4445 32.2033 32.2146 31.9734 32.2146 31.691V23.8905C32.2146 23.2694 32.2711 21.7206 32.134 21.1317C31.9202 20.1435 31.2789 19.8652 30.448 19.8652C29.7543 19.8652 29.0283 20.329 28.7338 21.0712C28.4394 21.8133 28.4676 23.0556 28.4676 23.8905V31.691C28.4676 31.9855 28.2216 32.2234 27.9151 32.2234H25.0514C24.761 32.2033 24.5351 31.9734 24.5351 31.691L24.5311 23.8905C24.5311 22.2489 24.8013 19.8329 22.7645 19.8329C20.7034 19.8329 20.7841 22.1884 20.7841 23.8905V31.691C20.7841 31.9855 20.5381 32.2234 20.2315 32.2234Z" fill="#221F1F"/>
<path d="M73.2327 16.1787C77.4879 16.1787 79.7909 19.8329 79.7909 24.4794C79.7909 28.9685 77.2459 32.53 73.2327 32.53C69.0541 32.53 66.7793 28.8757 66.7793 24.3221C66.7793 19.7402 69.0824 16.1787 73.2327 16.1787ZM73.2569 19.1836C71.1434 19.1836 71.0103 22.0634 71.0103 23.8582C71.0103 25.6571 70.9821 29.4969 73.2327 29.4969C75.4551 29.4969 75.5599 26.3993 75.5599 24.5116C75.5599 23.2694 75.5075 21.7851 75.1324 20.6073C74.8097 19.5829 74.1684 19.1836 73.2569 19.1836Z" fill="#221F1F"/>
<path d="M85.3095 32.2234H82.4539C82.1675 32.2033 81.9376 31.9734 81.9376 31.691L81.9336 16.9692C81.9578 16.699 82.1958 16.4893 82.4862 16.4893H85.1441C85.3942 16.5014 85.5999 16.6708 85.6564 16.9007V19.1513H85.7088C86.5115 17.1387 87.6368 16.1787 89.6171 16.1787C90.9038 16.1787 92.1582 16.6425 92.9648 17.9131C93.715 19.0908 93.715 21.0712 93.715 22.495V31.7596C93.6828 32.0177 93.4448 32.2234 93.1625 32.2234H90.2867C90.0245 32.2033 89.8067 32.0097 89.7785 31.7596V23.7655C89.7785 22.1562 89.964 19.8007 87.9836 19.8007C87.2859 19.8007 86.6446 20.2685 86.3259 20.9784C85.9226 21.8779 85.8702 22.7733 85.8702 23.7655V31.691C85.8661 31.9855 85.616 32.2234 85.3095 32.2234Z" fill="#221F1F"/>
<path d="M47.1003 25.1938V24.5727C45.0271 24.5727 42.837 25.0163 42.837 27.4606C42.837 28.6988 43.4783 29.5377 44.5794 29.5377C45.3861 29.5377 46.1081 29.0416 46.5638 28.235C47.1285 27.2428 47.1003 26.3111 47.1003 25.1938ZM49.9922 32.1836C49.8026 32.353 49.5284 32.3651 49.3146 32.2522C48.3627 31.4617 48.1933 31.0946 47.669 30.3404C46.096 31.9457 44.9828 32.4256 42.9419 32.4256C40.5299 32.4256 38.6504 30.9373 38.6504 27.9567C38.6504 25.6294 39.9128 24.0443 41.7077 23.2699C43.2646 22.5842 45.4385 22.4632 47.1003 22.2737V21.9026C47.1003 21.221 47.1527 20.4143 46.7534 19.8254C46.4025 19.297 45.733 19.0792 45.1441 19.0792C44.0511 19.0792 43.075 19.6399 42.837 20.8015C42.7886 21.0596 42.599 21.3137 42.3409 21.3258L39.5579 21.0274C39.324 20.9749 39.0658 20.7854 39.1304 20.4264C39.7717 17.0545 42.8168 16.0381 45.5434 16.0381C46.9389 16.0381 48.762 16.4092 49.8631 17.4659C51.2587 18.7687 51.1256 20.507 51.1256 22.3987V26.8677C51.1256 28.2108 51.6822 28.7996 52.2065 29.5256C52.392 29.7838 52.4324 30.0943 52.1984 30.288C51.6136 30.776 50.573 31.6835 50.0003 32.1917L49.9922 32.1836" fill="#221F1F"/>
<path d="M9.50653 25.1938V24.5727C7.43338 24.5727 5.24327 25.0163 5.24327 27.4606C5.24327 28.6988 5.88457 29.5377 6.98568 29.5377C7.79235 29.5377 8.51432 29.0416 8.97009 28.235C9.53476 27.2428 9.50653 26.3111 9.50653 25.1938ZM12.3984 32.1836C12.2089 32.353 11.9346 32.3651 11.7208 32.2522C10.769 31.4617 10.5996 31.0946 10.0752 30.3404C8.50222 31.9457 7.38902 32.4256 5.34813 32.4256C2.93618 32.4256 1.05664 30.9373 1.05664 27.9567C1.05664 25.6294 2.31908 24.0443 4.11393 23.2699C5.6708 22.5842 7.84478 22.4632 9.50653 22.2737V21.9026C9.50653 21.221 9.55896 20.4143 9.15966 19.8254C8.80876 19.297 8.13922 19.0792 7.55035 19.0792C6.45731 19.0792 5.48124 19.6399 5.24327 20.8015C5.19487 21.0596 5.0053 21.3137 4.74717 21.3258L1.96415 21.0274C1.73021 20.9749 1.47208 20.7854 1.53661 20.4264C2.17791 17.0545 5.2231 16.0381 7.94965 16.0381C9.34519 16.0381 11.1683 16.4092 12.2694 17.4659C13.6649 18.7687 13.5318 20.507 13.5318 22.3987V26.8677C13.5318 28.2108 14.0884 28.7996 14.6128 29.5256C14.7983 29.7838 14.8386 30.0943 14.6047 30.288C14.0199 30.776 12.9793 31.6835 12.4065 32.1917L12.3984 32.1836" fill="#221F1F"/>
</g>
<defs>
<clipPath id="clip0_508_1130">
<rect width="93" height="48" fill="white"/>
</clipPath>
</defs>
</svg>
