<svg width="32" height="32" viewBox="0 0 32 32" fill="none" xmlns="http://www.w3.org/2000/svg">
<g clip-path="url(#clip0_508_982)">
<path d="M25.334 1.33301L18.6673 7.99967V22.6663L25.334 16.6663V1.33301ZM1.33398 7.99967V27.533C1.33398 27.8663 1.66732 28.1997 2.00065 28.1997C2.13398 28.1997 2.20065 28.133 2.33398 28.133C4.13398 27.2663 6.73398 26.6663 8.66732 26.6663C11.2673 26.6663 14.0673 27.1997 16.0007 28.6663V7.99967C14.0673 6.53301 11.2673 5.99967 8.66732 5.99967C6.06732 5.99967 3.26732 6.53301 1.33398 7.99967ZM30.6673 25.9997V7.99967C29.8673 7.39967 29.0007 6.99967 28.0007 6.66634V24.6663C26.534 24.1997 24.934 23.9997 23.334 23.9997C21.0673 23.9997 17.8007 24.8663 16.0007 25.9997V28.6663C17.8007 27.533 21.0673 26.6663 23.334 26.6663C25.534 26.6663 27.8007 27.0663 29.6673 28.0663C29.8007 28.133 29.8673 28.133 30.0007 28.133C30.334 28.133 30.6673 27.7997 30.6673 27.4663V25.9997Z" fill="#FFD300"/>
</g>
<defs>
<clipPath id="clip0_508_982">
<rect width="32" height="32" fill="white"/>
</clipPath>
</defs>
</svg>
