<svg width="21" height="21" viewBox="0 0 21 21" fill="none" xmlns="http://www.w3.org/2000/svg">
<g clip-path="url(#clip0_508_1292)">
<path d="M14.6667 3H4.66667C3.74167 3 3 3.75 3 4.66667V16.3333C3 17.25 3.74167 18 4.66667 18H16.3333C17.25 18 18 17.25 18 16.3333V6.33333L14.6667 3ZM10.5 16.3333C9.11667 16.3333 8 15.2167 8 13.8333C8 12.45 9.11667 11.3333 10.5 11.3333C11.8833 11.3333 13 12.45 13 13.8333C13 15.2167 11.8833 16.3333 10.5 16.3333ZM13 8H4.66667V4.66667H13V8Z" fill="#8084A2"/>
</g>
<defs>
<clipPath id="clip0_508_1292">
<rect width="20" height="20" fill="white" transform="translate(0.5 0.5)"/>
</clipPath>
</defs>
</svg>
