<svg width="21" height="21" viewBox="0 0 21 21" fill="none" xmlns="http://www.w3.org/2000/svg">
<g clip-path="url(#clip0_508_1287)">
<path d="M14.6667 9.66667V3H6.33333V6.33333H3V18H9.66667V14.6667H11.3333V18H18V9.66667H14.6667ZM6.33333 16.3333H4.66667V14.6667H6.33333V16.3333ZM6.33333 13H4.66667V11.3333H6.33333V13ZM6.33333 9.66667H4.66667V8H6.33333V9.66667ZM9.66667 13H8V11.3333H9.66667V13ZM9.66667 9.66667H8V8H9.66667V9.66667ZM9.66667 6.33333H8V4.66667H9.66667V6.33333ZM13 13H11.3333V11.3333H13V13ZM13 9.66667H11.3333V8H13V9.66667ZM13 6.33333H11.3333V4.66667H13V6.33333ZM16.3333 16.3333H14.6667V14.6667H16.3333V16.3333ZM16.3333 13H14.6667V11.3333H16.3333V13Z" fill="#8084A2"/>
</g>
<defs>
<clipPath id="clip0_508_1287">
<rect width="20" height="20" fill="white" transform="translate(0.5 0.5)"/>
</clipPath>
</defs>
</svg>
